# xmcd
#
# Track frame offsets:
#	150
#	25278
#	34147
#	47583
#	68475
#	99735
#	118935
#	139609
#	154918
#	165620
#	180673
#	203187
#	216368
#	240018
#
# Disc length: 3637 seconds
#
# Revision: 0
# Processed by: cddbd v1.5.2PL0 Copyright (c) Steve Scherf et al.
# Submitted via: EasyCDDAExtractor 2010.6.0.0
#
DISCID=bd0e330e
DTITLE=亚洲爱乐乐团 - 永远的红楼梦
DYEAR=2008
DGENRE=Country
TTITLE0=红楼梦主题曲
TTITLE1=引子
TTITLE2=枉凝眉
TTITLE3=红豆曲
TTITLE4=葬花吟
TTITLE5=提帕三绝
TTITLE6=秋窗风雨夕
TTITLE7=晴雯歌
TTITLE8=紫菱洲歌
TTITLE9=叹香菱
TTITLE10=分骨肉
TTITLE11=聪明累
TTITLE12=枉凝眉（民乐版）
TTITLE13=葬花吟（民乐版）
EXTD=
EXTT0=
EXTT1=
EXTT2=
EXTT3=
EXTT4=
EXTT5=
EXTT6=
EXTT7=
EXTT8=
EXTT9=
EXTT10=
EXTT11=
EXTT12=
EXTT13=
PLAYORDER=
